<?xml version="1.0" standalone="no"?>
<!DOCTYPE svg PUBLIC "-//W3C//DTD SVG 20010904//EN"
 "http://www.w3.org/TR/2001/REC-SVG-20010904/DTD/svg10.dtd">
<svg version="1.0" xmlns="http://www.w3.org/2000/svg"
 width="425.000000pt" height="425.000000pt" viewBox="0 0 425.000000 425.000000"
 preserveAspectRatio="xMidYMid meet">
<metadata>
Created by potrace 1.11, written by Peter Selinger 2001-2013
</metadata>
<g transform="translate(0.000000,425.000000) scale(0.100000,-0.100000)"
fill="#000000" stroke="none">
<path d="M3889 4213 c-8 -16 -16 -30 -19 -33 -3 -3 -70 -104 -150 -225 -80
-121 -147 -222 -150 -225 -14 -14 -120 -181 -120 -189 0 -5 -3 -11 -8 -13 -8
-3 -219 -319 -220 -331 -1 -4 -6 -13 -12 -20 -44 -52 -60 -73 -60 -80 0 -5
-16 -29 -35 -54 -19 -25 -35 -52 -35 -59 0 -7 -4 -14 -8 -16 -9 -3 -152 -214
-152 -224 0 -2 -5 -10 -11 -17 -6 -7 -46 -66 -90 -132 l-79 -120 200 -3 200
-2 0 -345 0 -345 -432 0 -433 0 -70 -107 c-38 -59 -72 -112 -75 -118 -3 -5
-33 -51 -67 -102 -35 -51 -63 -97 -63 -102 0 -5 -4 -11 -8 -13 -5 -1 -30 -37
-57 -78 -142 -220 -225 -346 -235 -357 -5 -7 -10 -15 -10 -19 0 -4 -7 -16 -17
-26 -16 -17 20 -18 1110 -18 l1127 0 0 1700 c0 935 -1 1700 -3 1700 -2 0 -10
-12 -18 -27z"/>
<path d="M330 1714 c0 -932 2 -1694 5 -1694 4 0 73 101 85 125 10 19 65 100
77 113 7 7 13 17 13 22 0 5 6 15 13 22 7 7 28 38 47 68 19 30 38 60 43 65 22
27 177 267 177 275 0 4 4 10 8 12 5 2 62 84 127 183 65 99 153 233 196 297 44
64 79 120 79 123 0 3 8 15 18 26 11 10 25 32 33 47 8 15 22 36 32 46 9 11 17
25 17 32 0 7 4 14 8 16 11 4 152 218 152 229 0 5 4 9 8 9 5 0 14 11 20 25 l12
25 -200 0 -200 0 0 345 0 345 433 0 432 1 115 176 c63 97 181 277 263 400 81
123 147 226 147 229 0 3 5 10 10 17 6 7 26 35 44 64 l34 52 -1124 0 -1124 0 0
-1695z"/>
</g>
</svg>
